<svg width="173" height="48" viewBox="0 0 173 48" fill="none" xmlns="http://www.w3.org/2000/svg">
<path fill-rule="evenodd" clip-rule="evenodd" d="M24.502 4.59016C30.2569 -1.74128 39.1503 -1.53114 44.6945 5.27464C47.8764 9.18397 49.2944 14.4234 48.9494 19.5156C48.983 19.9655 49 20.4178 49 20.8718C49 36.2051 31.85 43.2821 19.6 48L19.6 39.7436C14.4018 39.7436 9.41642 37.7553 5.7407 34.2162C2.06499 30.677 -1.13112e-06 25.8769 -9.12336e-07 20.8718C-8.92463e-07 20.4172 0.0170394 19.9642 0.0507766 19.5137C-0.294758 14.4172 1.12333 9.17459 4.30458 5.27464C9.85373 -1.52213 18.7299 -1.75029 24.502 4.59016Z" fill="#FF1E49"/>
<path d="M60.38 29.8H62.12C63.5 29.8 64.8 29.69 66.02 29.47C67.24 29.25 68.14 28.94 68.72 28.54L68.93 26.89C68.95 26.81 69.01 26.75 69.11 26.71C69.23 26.67 69.36 26.65 69.5 26.65C69.8 26.65 69.94 26.73 69.92 26.89C69.82 27.63 69.75 28.42 69.71 29.26C69.67 30.1 69.65 30.9 69.65 31.66C69.65 31.8 69.5 31.87 69.2 31.87C69.08 31.87 68.97 31.85 68.87 31.81C68.77 31.79 68.72 31.74 68.72 31.66V31H58.97C58.13 31 57.46 31 56.96 31C56.46 31.02 56.05 31.03 55.73 31.03C55.41 31.05 55.09 31.06 54.77 31.06C54.69 31.06 54.63 31.01 54.59 30.91C54.55 30.81 54.53 30.7 54.53 30.58C54.53 30.44 54.55 30.32 54.59 30.22C54.63 30.1 54.69 30.04 54.77 30.04H56.06C56.58 30.04 56.91 29.94 57.05 29.74C57.21 29.54 57.29 29.18 57.29 28.66V14.44C57.29 13.66 57.25 13.09 57.17 12.73C57.11 12.35 57.03 12.1 56.93 11.98C56.85 11.86 56.76 11.8 56.66 11.8H54.92C54.76 11.8 54.68 11.61 54.68 11.23C54.68 11.13 54.69 11.04 54.71 10.96C54.75 10.86 54.82 10.81 54.92 10.81C55.56 10.81 56.2 10.82 56.84 10.84C57.48 10.84 58.1 10.84 58.7 10.84C59.56 10.84 60.23 10.84 60.71 10.84C61.21 10.82 61.62 10.8 61.94 10.78C62.26 10.76 62.58 10.75 62.9 10.75C63 10.75 63.06 10.8 63.08 10.9C63.12 11 63.14 11.11 63.14 11.23C63.14 11.37 63.12 11.5 63.08 11.62C63.04 11.72 62.98 11.77 62.9 11.77H61.61C61.11 11.77 60.78 11.87 60.62 12.07C60.46 12.27 60.38 12.63 60.38 13.15V29.8ZM76.0445 23.38C76.6845 23.36 77.2945 23.33 77.8745 23.29C78.4745 23.25 78.9745 23.21 79.3745 23.17C79.7745 23.11 79.9945 23.07 80.0345 23.05L80.2445 21.79C80.2845 21.69 80.4245 21.64 80.6645 21.64C80.7245 21.64 80.8045 21.66 80.9045 21.7C81.0045 21.72 81.0545 21.77 81.0545 21.85C81.0145 22.17 80.9845 22.48 80.9645 22.78C80.9445 23.06 80.9345 23.37 80.9345 23.71C80.9345 24.01 80.9445 24.34 80.9645 24.7C80.9845 25.04 81.0145 25.38 81.0545 25.72C81.0545 25.78 80.9945 25.83 80.8745 25.87C80.7745 25.89 80.6745 25.9 80.5745 25.9C80.4945 25.9 80.4145 25.89 80.3345 25.87C80.2745 25.85 80.2445 25.82 80.2445 25.78L80.0045 24.49C79.9645 24.45 79.7445 24.41 79.3445 24.37C78.9645 24.33 78.4845 24.29 77.9045 24.25C77.3245 24.21 76.7045 24.18 76.0445 24.16V27.79C76.0445 28.63 76.1045 29.22 76.2245 29.56C76.3445 29.88 76.4845 30.04 76.6445 30.04H77.6045C78.5445 30.02 79.4345 29.93 80.2745 29.77C81.1345 29.61 81.7645 29.39 82.1645 29.11L82.3145 27.94C82.3345 27.88 82.3945 27.84 82.4945 27.82C82.6145 27.78 82.7145 27.76 82.7945 27.76C82.8945 27.76 82.9845 27.77 83.0645 27.79C83.1445 27.81 83.1745 27.86 83.1545 27.94C83.0745 28.46 83.0245 29.05 83.0045 29.71C82.9845 30.35 82.9745 30.94 82.9745 31.48C82.9745 31.54 82.9245 31.58 82.8245 31.6C82.7445 31.62 82.6745 31.63 82.6145 31.63C82.5345 31.63 82.4345 31.62 82.3145 31.6C82.2145 31.58 82.1645 31.54 82.1645 31.48V31H76.8245C75.6045 31 74.6645 31 74.0045 31C73.3445 31.02 72.8545 31.03 72.5345 31.03C72.2145 31.05 71.9445 31.06 71.7245 31.06C71.6445 31.06 71.5845 31 71.5445 30.88C71.5245 30.76 71.5145 30.66 71.5145 30.58C71.5145 30.48 71.5245 30.39 71.5445 30.31C71.5845 30.21 71.6345 30.16 71.6945 30.16H73.0445C73.2645 30.16 73.3945 30.11 73.4345 30.01C73.4745 29.91 73.4945 29.67 73.4945 29.29V19.84C73.4945 19 73.4345 18.39 73.3145 18.01C73.2145 17.63 73.0745 17.44 72.8945 17.44H71.8145C71.5745 17.44 71.4545 17.29 71.4545 16.99C71.4545 16.67 71.5645 16.51 71.7845 16.51C72.1645 16.51 72.6245 16.52 73.1645 16.54C73.7245 16.56 74.2845 16.57 74.8445 16.57H81.0545V16.09C81.0545 16.03 81.0945 15.99 81.1745 15.97C81.2545 15.93 81.3345 15.91 81.4145 15.91C81.4945 15.91 81.5845 15.93 81.6845 15.97C81.8045 15.99 81.8645 16.03 81.8645 16.09C81.8645 16.63 81.8745 17.22 81.8945 17.86C81.9345 18.5 81.9945 19.04 82.0745 19.48C82.0945 19.54 82.0645 19.59 81.9845 19.63C81.9045 19.65 81.8245 19.66 81.7445 19.66C81.6645 19.66 81.5545 19.65 81.4145 19.63C81.2945 19.59 81.2345 19.54 81.2345 19.48C81.1545 19.2 81.0545 18.9 80.9345 18.58C80.8345 18.26 80.6645 18.04 80.4245 17.92C80.0445 17.78 79.5745 17.67 79.0145 17.59C78.4545 17.51 77.7045 17.47 76.7645 17.47C76.4845 17.49 76.2945 17.58 76.1945 17.74C76.0945 17.88 76.0445 18.12 76.0445 18.46V23.38ZM93.3784 27.79C93.3784 28.63 93.4384 29.22 93.5584 29.56C93.6784 29.9 93.8184 30.07 93.9784 30.07H95.4784C95.5384 30.07 95.5884 30.12 95.6284 30.22C95.6884 30.32 95.7184 30.44 95.7184 30.58C95.7184 30.68 95.6984 30.78 95.6584 30.88C95.6384 30.96 95.5984 31 95.5384 31C95.1784 31 94.7084 31 94.1284 31C93.5484 30.98 92.8584 30.97 92.0584 30.97C91.0984 30.97 90.4184 30.98 90.0184 31C89.6184 31.04 89.2984 31.06 89.0584 31.06C88.9784 31.06 88.9184 31 88.8784 30.88C88.8584 30.76 88.8484 30.66 88.8484 30.58C88.8484 30.48 88.8584 30.39 88.8784 30.31C88.9184 30.21 88.9684 30.16 89.0284 30.16H90.3784C90.5984 30.16 90.7284 30.11 90.7684 30.01C90.8084 29.91 90.8284 29.67 90.8284 29.29V20.17C90.8284 19.37 90.7784 18.78 90.6784 18.4C90.5784 18.02 90.4484 17.81 90.2884 17.77C89.5284 17.77 88.8484 17.79 88.2484 17.83C87.6684 17.87 87.1384 17.95 86.6584 18.07C86.3984 18.15 86.1984 18.37 86.0584 18.73C85.9184 19.09 85.8184 19.41 85.7584 19.69C85.7584 19.77 85.7084 19.83 85.6084 19.87C85.5284 19.89 85.4484 19.9 85.3684 19.9C85.2884 19.9 85.1884 19.89 85.0684 19.87C84.9684 19.83 84.9284 19.77 84.9484 19.69C85.0084 19.23 85.0484 18.66 85.0684 17.98C85.0884 17.28 85.0984 16.66 85.0984 16.12C85.0984 16.08 85.1584 16.04 85.2784 16C85.3984 15.96 85.4984 15.94 85.5784 15.94C85.6384 15.94 85.7084 15.96 85.7884 16C85.8684 16.02 85.9084 16.06 85.9084 16.12V16.51C86.0684 16.51 86.3584 16.52 86.7784 16.54C87.1984 16.54 87.6784 16.55 88.2184 16.57C88.7784 16.57 89.3184 16.57 89.8384 16.57H92.0584C92.2984 16.57 92.7084 16.57 93.2884 16.57C93.8884 16.57 94.5284 16.57 95.2084 16.57C95.8884 16.55 96.4984 16.54 97.0384 16.54C97.5984 16.52 97.9784 16.51 98.1784 16.51H98.2684V16.12C98.2684 16.06 98.3084 16.02 98.3884 16C98.4684 15.96 98.5384 15.94 98.5984 15.94C98.6984 15.94 98.7984 15.96 98.8984 16C99.0184 16.04 99.0784 16.08 99.0784 16.12C99.0784 16.66 99.0884 17.28 99.1084 17.98C99.1284 18.66 99.1684 19.23 99.2284 19.69C99.2484 19.77 99.2084 19.83 99.1084 19.87C99.0084 19.89 98.9084 19.9 98.8084 19.9C98.7284 19.9 98.6384 19.89 98.5384 19.87C98.4584 19.83 98.4184 19.77 98.4184 19.69C98.3584 19.41 98.2584 19.09 98.1184 18.73C97.9984 18.37 97.7984 18.15 97.5184 18.07C97.0584 17.97 96.5484 17.9 95.9884 17.86C95.4484 17.82 94.8684 17.79 94.2484 17.77H93.6784C93.4784 17.79 93.3784 17.95 93.3784 18.25V27.79ZM102.712 17.95C103.532 17.53 104.232 17.01 104.812 16.39C105.392 15.77 105.682 15.21 105.682 14.71C105.682 14.27 105.522 13.98 105.202 13.84C104.882 13.68 104.432 13.62 103.852 13.66C103.652 13.56 103.472 13.38 103.312 13.12C103.152 12.86 103.072 12.57 103.072 12.25C103.072 11.77 103.232 11.37 103.552 11.05C103.872 10.71 104.282 10.54 104.782 10.54C105.482 10.54 106.022 10.81 106.402 11.35C106.802 11.89 107.002 12.48 107.002 13.12C107.002 14.06 106.812 14.86 106.432 15.52C106.072 16.18 105.592 16.75 104.992 17.23C104.392 17.69 103.742 18.12 103.042 18.52L102.712 17.95ZM116.526 16.66C116.506 16.56 116.486 16.48 116.466 16.42C116.466 16.34 116.466 16.28 116.466 16.24C116.466 16.06 116.566 15.97 116.766 15.97C116.926 15.97 117.036 16 117.096 16.06C117.176 16.1 117.236 16.23 117.276 16.45C117.376 16.77 117.436 17.06 117.456 17.32C117.496 17.56 117.536 17.8 117.576 18.04C117.636 18.3 117.686 18.54 117.726 18.76C117.786 18.96 117.846 19.29 117.906 19.75C117.906 19.91 117.776 19.99 117.516 19.99C117.436 19.99 117.356 19.98 117.276 19.96C117.196 19.92 117.136 19.85 117.096 19.75C116.836 19.01 116.426 18.4 115.866 17.92C115.306 17.44 114.676 17.19 113.976 17.17C113.416 17.17 112.876 17.35 112.356 17.71C111.856 18.07 111.606 18.57 111.606 19.21C111.606 19.85 111.826 20.41 112.266 20.89C112.706 21.37 113.256 21.82 113.916 22.24C114.576 22.66 115.236 23.11 115.896 23.59C116.556 24.07 117.106 24.64 117.546 25.3C117.986 25.96 118.206 26.77 118.206 27.73C118.206 28.55 117.946 29.23 117.426 29.77C116.926 30.31 116.286 30.72 115.506 31C114.746 31.26 113.966 31.39 113.166 31.39C112.606 31.39 112.036 31.31 111.456 31.15C110.896 31.01 110.436 30.86 110.076 30.7C110.076 30.92 110.056 31.06 110.016 31.12C109.996 31.18 109.896 31.23 109.716 31.27H109.596C109.436 31.27 109.346 31.19 109.326 31.03C109.266 30.33 109.186 29.7 109.086 29.14C109.006 28.56 108.916 27.85 108.816 27.01C108.816 26.91 108.866 26.84 108.966 26.8C109.066 26.74 109.176 26.71 109.296 26.71C109.476 26.71 109.576 26.76 109.596 26.86C109.776 27.46 110.046 28.04 110.406 28.6C110.766 29.14 111.206 29.59 111.726 29.95C112.246 30.29 112.816 30.46 113.436 30.46C114.016 30.46 114.566 30.29 115.086 29.95C115.626 29.59 115.896 29.05 115.896 28.33C115.896 27.63 115.676 27.03 115.236 26.53C114.796 26.01 114.246 25.53 113.586 25.09C112.946 24.65 112.296 24.19 111.636 23.71C110.996 23.23 110.456 22.69 110.016 22.09C109.576 21.49 109.356 20.76 109.356 19.9C109.356 19.1 109.586 18.43 110.046 17.89C110.506 17.35 111.096 16.94 111.816 16.66C112.556 16.38 113.336 16.24 114.156 16.24C114.656 16.24 115.106 16.29 115.506 16.39C115.926 16.47 116.266 16.56 116.526 16.66ZM144.23 9.20312C144.328 9.35938 144.357 9.54492 144.318 9.75977C144.299 9.85742 144.23 9.97461 144.113 10.1113C144.016 10.2285 143.938 10.3359 143.879 10.4336C143.684 10.5898 143.557 10.7168 143.498 10.8145C143.459 10.8926 143.391 10.9512 143.293 10.9902C142.961 11.127 142.688 11.1953 142.473 11.1953C142.258 11.1953 141.984 11.1855 141.652 11.166C141.418 11.166 141.242 11.1758 141.125 11.1953C141.027 11.2148 140.861 11.2539 140.627 11.3125C140.549 11.332 140.49 11.3516 140.451 11.3711C140.412 11.3906 140.344 11.4102 140.246 11.4297C140.148 11.4688 140.051 11.4883 139.953 11.4883C139.875 11.4883 139.807 11.5176 139.748 11.5762C139.65 11.5566 139.592 11.5566 139.572 11.5762C139.553 11.5957 139.494 11.625 139.396 11.6641C139.26 11.6836 139.162 11.7031 139.104 11.7227C139.064 11.7422 139.006 11.7715 138.928 11.8105C138.869 11.7715 138.791 11.7715 138.693 11.8105C138.596 11.8301 138.498 11.8496 138.4 11.8691C138.244 11.9082 138.107 11.9375 137.99 11.957C137.893 11.9766 137.795 12.0156 137.697 12.0742C137.678 12.1328 137.648 12.1914 137.609 12.25C137.57 12.2891 137.561 12.3379 137.58 12.3965C137.463 12.5332 137.365 12.6895 137.287 12.8652C137.209 13.041 137.102 13.1875 136.965 13.3047C136.906 13.4023 136.848 13.5098 136.789 13.627C136.73 13.7246 136.652 13.8125 136.555 13.8906C136.516 14.0469 136.447 14.1836 136.35 14.3008C136.271 14.3984 136.193 14.5059 136.115 14.623C135.939 14.916 135.773 15.2969 135.617 15.7656C135.461 16.2148 135.295 16.5859 135.119 16.8789C135.041 17.1328 134.934 17.3574 134.797 17.5527C134.66 17.7285 134.543 17.9238 134.445 18.1387C134.289 18.8027 134.074 19.418 133.801 19.9844C133.527 20.5508 133.264 21.1367 133.01 21.7422C132.912 21.957 132.844 22.084 132.805 22.123C132.785 22.1426 132.775 22.1816 132.775 22.2402C132.678 22.3379 132.6 22.4648 132.541 22.6211C132.502 22.7578 132.453 22.8945 132.395 23.0312C132.375 23.0898 132.307 23.1777 132.189 23.2949C132.15 23.3926 132.111 23.5 132.072 23.6172C132.033 23.7344 131.994 23.8418 131.955 23.9395C131.896 24.0176 131.867 24.0957 131.867 24.1738C131.867 24.252 131.848 24.3105 131.809 24.3496C131.691 24.5645 131.633 24.7012 131.633 24.7598C131.633 24.8184 131.623 24.877 131.604 24.9355C131.447 25.248 131.35 25.4922 131.311 25.668C131.271 25.8242 131.203 25.9707 131.105 26.1074C131.105 26.2051 131.086 26.293 131.047 26.3711C131.008 26.4492 130.969 26.5273 130.93 26.6055C130.969 26.7617 130.939 26.9375 130.842 27.1328C130.744 27.3086 130.656 27.4746 130.578 27.6309C130.441 27.9629 130.334 28.1875 130.256 28.3047C130.178 28.4023 130.119 28.5098 130.08 28.627C129.982 28.8613 129.895 29.0273 129.816 29.125C129.758 29.2031 129.699 29.291 129.641 29.3887C129.543 29.6035 129.445 29.8086 129.348 30.0039C129.27 30.1992 129.172 30.3848 129.055 30.5605C129.055 30.6387 129.055 30.7266 129.055 30.8242C129.055 30.9023 129.045 30.9805 129.025 31.0586C128.986 31.1562 128.918 31.2539 128.82 31.3516C128.742 31.4688 128.674 31.5371 128.615 31.5566C128.42 31.5566 128.283 31.5664 128.205 31.5859C128.127 31.625 128.049 31.6445 127.971 31.6445C127.873 31.6055 127.775 31.5469 127.678 31.4688C127.58 31.3906 127.492 31.3125 127.414 31.2344C127.199 30.9805 127.004 30.7754 126.828 30.6191C126.652 30.4434 126.555 30.2188 126.535 29.9453C126.516 29.8086 126.535 29.6719 126.594 29.5352C126.652 29.3984 126.76 29.3105 126.916 29.2715C127.131 28.8223 127.287 28.4414 127.385 28.1289C127.502 27.8164 127.629 27.5039 127.766 27.1914C127.805 27.1133 127.834 27.0449 127.854 26.9863C127.893 26.9082 127.932 26.8203 127.971 26.7227C128.01 26.625 128.039 26.5469 128.059 26.4883C128.078 26.4102 128.107 26.3223 128.146 26.2246C128.205 26.0684 128.273 25.9219 128.352 25.7852C128.43 25.6484 128.518 25.502 128.615 25.3457C128.771 25.0527 128.918 24.7695 129.055 24.4961C129.191 24.2031 129.348 23.9199 129.523 23.6465C129.562 23.5293 129.611 23.4316 129.67 23.3535C129.748 23.2559 129.807 23.1484 129.846 23.0312C129.885 22.9141 129.885 22.8164 129.846 22.7383C129.826 22.6406 129.826 22.543 129.846 22.4453C129.865 22.3281 129.914 22.2305 129.992 22.1523C130.09 22.0547 130.139 21.9473 130.139 21.8301C130.236 21.6738 130.324 21.5273 130.402 21.3906C130.5 21.2539 130.598 21.1074 130.695 20.9512C130.793 20.7754 130.852 20.6484 130.871 20.5703C130.91 20.4727 130.959 20.375 131.018 20.2773C131.096 20.1602 131.145 20.0625 131.164 19.9844C131.223 19.8281 131.281 19.6816 131.34 19.5449C131.398 19.4082 131.477 19.291 131.574 19.1934C131.613 18.998 131.672 18.8418 131.75 18.7246C131.848 18.5879 131.945 18.4512 132.043 18.3145C132.121 18.0605 132.219 17.8262 132.336 17.6113C132.473 17.377 132.59 17.1426 132.688 16.9082C132.785 16.6934 132.873 16.4199 132.951 16.0879C133.049 15.7559 133.146 15.4824 133.244 15.2676C133.498 14.8184 133.732 14.3691 133.947 13.9199C134.162 13.4512 134.387 12.9922 134.621 12.543C134.348 12.543 134.055 12.5527 133.742 12.5723C133.43 12.5723 133.156 12.5527 132.922 12.5137C132.824 12.5137 132.756 12.5332 132.717 12.5723C132.697 12.5918 132.629 12.5918 132.512 12.5723C132.434 12.5723 132.355 12.5625 132.277 12.543C132.199 12.5234 132.111 12.5137 132.014 12.5137C131.857 12.4941 131.662 12.5234 131.428 12.6016C131.213 12.6602 131.018 12.709 130.842 12.748C130.588 12.7871 130.432 12.8555 130.373 12.9531C130.334 13.0312 130.217 13.0898 130.021 13.1289C129.924 13.168 129.816 13.1777 129.699 13.1582C129.602 13.1387 129.504 13.168 129.406 13.2461C129.191 13.207 128.996 13.1094 128.82 12.9531C128.664 12.7773 128.527 12.5918 128.41 12.3965C128.371 12.3184 128.312 12.2891 128.234 12.3086C128.156 12.3281 128.107 12.2891 128.088 12.1914C128.049 12.0352 128.049 11.8789 128.088 11.7227C128.107 11.6641 128.137 11.6152 128.176 11.5762C128.215 11.5371 128.234 11.4883 128.234 11.4297C128.391 11.3906 128.527 11.3613 128.645 11.3418C128.781 11.3223 128.898 11.2637 128.996 11.166C129.328 11.1074 129.592 11.0488 129.787 10.9902C130.002 10.9316 130.275 10.8633 130.607 10.7852C130.803 10.6875 130.9 10.6484 130.9 10.668C130.92 10.668 130.949 10.668 130.988 10.668C131.184 10.6289 131.408 10.5801 131.662 10.5215C131.916 10.4629 132.18 10.4043 132.453 10.3457C132.727 10.3066 132.941 10.2871 133.098 10.2871C133.273 10.2676 133.518 10.2676 133.83 10.2871C134.182 10.3066 134.533 10.2969 134.885 10.2578C135.236 10.1992 135.568 10.1504 135.881 10.1113C136.018 10.0723 136.125 10.0527 136.203 10.0527C136.281 10.0332 136.35 10.0137 136.408 9.99414C136.525 9.97461 136.633 9.96484 136.73 9.96484C136.828 9.96484 136.906 9.92578 136.965 9.84766C137.336 9.76953 137.678 9.70117 137.99 9.64258C138.303 9.58398 138.605 9.53516 138.898 9.49609C139.191 9.4375 139.484 9.37891 139.777 9.32031C140.09 9.26172 140.441 9.20312 140.832 9.14453C141.164 9.10547 141.418 9.06641 141.594 9.02734C141.77 8.96875 142.053 8.95898 142.443 8.99805C142.561 9.01758 142.678 9.02734 142.795 9.02734C142.912 9.02734 143.049 9.03711 143.205 9.05664C143.303 9.07617 143.43 9.11523 143.586 9.17383C143.762 9.21289 143.918 9.20312 144.055 9.14453L144.23 9.20312ZM145.871 23.0898C145.891 23.1484 145.871 23.2656 145.812 23.4414C145.715 23.5586 145.656 23.6855 145.637 23.8223C145.598 23.9004 145.559 23.9688 145.52 24.0273C145.5 24.0859 145.48 24.1641 145.461 24.2617C145.422 24.3789 145.402 24.5156 145.402 24.6719C145.422 24.8281 145.422 24.9746 145.402 25.1113C145.363 25.3262 145.334 25.541 145.314 25.7559C145.295 25.9512 145.275 26.1562 145.256 26.3711C145.256 26.5859 145.236 26.8301 145.197 27.1035C145.158 27.377 145.119 27.6211 145.08 27.8359C145.158 27.9727 145.207 28.1191 145.227 28.2754C145.246 28.4316 145.314 28.5586 145.432 28.6562C145.822 28.5977 146.135 28.5098 146.369 28.3926C146.604 28.2559 146.828 28.0703 147.043 27.8359C147.219 27.7578 147.336 27.6895 147.395 27.6309C147.473 27.5723 147.59 27.4941 147.746 27.3965C147.785 27.3574 147.824 27.3184 147.863 27.2793C147.902 27.2402 147.941 27.2012 147.98 27.1621C148.195 27.0449 148.322 26.9668 148.361 26.9277C148.42 26.8887 148.488 26.8496 148.566 26.8105C148.898 26.5957 149.152 26.3711 149.328 26.1367C149.504 26 149.621 25.8828 149.68 25.7852C149.758 25.668 149.914 25.5605 150.148 25.4629C150.285 25.3066 150.422 25.1797 150.559 25.082C150.715 24.9648 150.861 24.8281 150.998 24.6719C151.096 24.6719 151.174 24.6914 151.232 24.7305C151.291 24.7695 151.359 24.8086 151.438 24.8477C151.496 25.0039 151.506 25.1699 151.467 25.3457C151.428 25.502 151.359 25.6484 151.262 25.7852C151.164 25.9219 151.115 26 151.115 26.0195C151.115 26.0391 151.105 26.0586 151.086 26.0781C151.027 26.1562 150.949 26.2344 150.852 26.3125C150.773 26.3711 150.705 26.4395 150.646 26.5176C150.549 26.6934 150.471 26.7812 150.412 26.7812C150.354 26.7812 150.305 26.8008 150.266 26.8398C150.09 26.9375 149.963 27.0156 149.885 27.0742C149.826 27.1328 149.719 27.2109 149.562 27.3086C149.348 27.4258 149.221 27.5039 149.182 27.543C149.143 27.582 149.104 27.6113 149.064 27.6309C148.811 27.9043 148.576 28.1289 148.361 28.3047C148.166 28.4609 147.951 28.6758 147.717 28.9492C147.639 29.0078 147.561 29.0664 147.482 29.125C147.404 29.1836 147.336 29.2617 147.277 29.3594C147.102 29.4766 146.955 29.5938 146.838 29.7109C146.74 29.8281 146.623 29.9648 146.486 30.1211C146.369 30.1797 146.242 30.2676 146.105 30.3848C145.969 30.4824 145.822 30.5703 145.666 30.6484C145.588 30.6875 145.5 30.7363 145.402 30.7949C145.324 30.834 145.236 30.8535 145.139 30.8535C144.904 30.8926 144.689 30.873 144.494 30.7949C144.299 30.7168 144.113 30.6582 143.938 30.6191C143.859 30.502 143.762 30.4043 143.645 30.3262C143.469 30.1113 143.342 29.8574 143.264 29.5645C143.186 29.2715 143.107 28.959 143.029 28.627C142.873 28.7246 142.727 28.8516 142.59 29.0078C142.453 29.1641 142.277 29.291 142.062 29.3887C141.672 29.7598 141.252 30.1211 140.803 30.4727C140.373 30.8047 139.934 31.1562 139.484 31.5273C139.426 31.5859 139.367 31.6348 139.309 31.6738C139.25 31.7129 139.201 31.7227 139.162 31.7031C139.064 31.8203 138.928 31.8887 138.752 31.9082C138.596 31.9473 138.42 31.9473 138.225 31.9082C138.029 31.8105 137.854 31.7422 137.697 31.7031C137.541 31.6641 137.385 31.6055 137.229 31.5273C136.896 31.4688 136.623 31.3223 136.408 31.0879C136.174 30.8535 135.979 30.5801 135.822 30.2676C135.764 30.1113 135.725 29.9648 135.705 29.8281C135.666 29.6914 135.627 29.5352 135.588 29.3594C135.568 29.2031 135.539 29.0762 135.5 28.9785C135.461 28.8613 135.461 28.7539 135.5 28.6562C135.461 28.5977 135.451 28.5391 135.471 28.4805C135.49 28.4023 135.5 28.3242 135.5 28.2461C135.48 27.9727 135.51 27.6797 135.588 27.3672C135.646 27.0547 135.734 26.7715 135.852 26.5176C135.891 26.4395 135.969 26.3418 136.086 26.2246C136.125 26.166 136.154 26.1074 136.174 26.0488C136.193 25.9902 136.223 25.9414 136.262 25.9023C136.301 25.8438 136.359 25.7852 136.438 25.7266C136.516 25.668 136.584 25.6094 136.643 25.5508C136.74 25.4141 136.848 25.2969 136.965 25.1992C137.102 25.082 137.229 24.9648 137.346 24.8477C137.404 24.7891 137.453 24.7207 137.492 24.6426C137.551 24.5645 137.629 24.5059 137.727 24.4668C137.805 24.3301 137.893 24.2227 137.99 24.1445C138.088 24.0469 138.195 23.9492 138.312 23.8516C138.645 23.4414 139.055 23.0996 139.543 22.8262C140.031 22.5527 140.471 22.2402 140.861 21.8887C140.998 21.8301 141.115 21.7617 141.213 21.6836C141.311 21.6055 141.408 21.5273 141.506 21.4492C141.76 21.2344 142.023 21.166 142.297 21.2441C142.57 21.3223 142.824 21.3906 143.059 21.4492C143.254 21.625 143.439 21.8008 143.615 21.9766C143.811 22.1523 143.977 22.3477 144.113 22.5625C144.25 22.543 144.406 22.543 144.582 22.5625C144.758 22.5625 144.943 22.543 145.139 22.5039C145.197 22.5039 145.256 22.4941 145.314 22.4746C145.373 22.4355 145.422 22.416 145.461 22.416C145.754 22.5137 145.9 22.6602 145.9 22.8555L145.871 23.0898ZM142.033 23.2949C141.506 23.5488 141.027 23.8516 140.598 24.2031C140.168 24.5352 139.758 24.8965 139.367 25.2871C139.27 25.3848 139.162 25.4824 139.045 25.5801C138.947 25.6582 138.859 25.7461 138.781 25.8438C138.703 25.9414 138.625 26.0586 138.547 26.1953C138.488 26.332 138.43 26.459 138.371 26.5762C138.332 26.6543 138.293 26.7227 138.254 26.7812C138.215 26.8203 138.176 26.8691 138.137 26.9277C138.098 27.0254 138.078 27.123 138.078 27.2207C138.098 27.3184 138.107 27.4258 138.107 27.543C138.107 27.6406 138.107 27.7383 138.107 27.8359C138.107 27.9336 138.117 28.0312 138.137 28.1289C138.195 28.3438 138.225 28.5586 138.225 28.7734C138.225 28.9297 138.234 29.125 138.254 29.3594C138.293 29.5742 138.371 29.7207 138.488 29.7988C138.605 29.877 138.723 29.8965 138.84 29.8574C138.977 29.8184 139.094 29.7891 139.191 29.7695C139.875 29.2422 140.52 28.6953 141.125 28.1289C141.73 27.543 142.268 26.8887 142.736 26.166C142.697 25.6582 142.688 25.1699 142.707 24.7012C142.746 24.2129 142.707 23.7637 142.59 23.3535C142.512 23.3145 142.414 23.3047 142.297 23.3242C142.199 23.3242 142.111 23.3145 142.033 23.2949ZM158.527 24.0859C158.742 24.1445 158.879 24.2129 158.938 24.291C159.016 24.3691 159.055 24.4473 159.055 24.5254C158.898 24.7402 158.801 24.8867 158.762 24.9648C158.742 25.0234 158.684 25.0723 158.586 25.1113C158.332 25.502 158.039 25.8535 157.707 26.166C157.395 26.459 157.102 26.791 156.828 27.1621C156.73 27.2598 156.643 27.3574 156.564 27.4551C156.486 27.5527 156.398 27.6504 156.301 27.748C156.086 27.9043 155.891 28.0801 155.715 28.2754C155.539 28.4512 155.354 28.6172 155.158 28.7734C155.061 28.8516 154.963 28.9297 154.865 29.0078C154.787 29.0664 154.699 29.1445 154.602 29.2422C154.504 29.3398 154.416 29.418 154.338 29.4766C154.26 29.5352 154.172 29.6035 154.074 29.6816C153.957 29.8184 153.84 29.9551 153.723 30.0918C153.605 30.2285 153.488 30.375 153.371 30.5312C153.156 30.6289 152.961 30.7461 152.785 30.8828C152.609 31.0195 152.404 31.1367 152.17 31.2344C152.072 31.293 151.975 31.3809 151.877 31.498C151.799 31.6348 151.691 31.7227 151.555 31.7617C151.398 31.8203 151.232 31.8301 151.057 31.791C150.881 31.7715 150.734 31.7324 150.617 31.6738C150.52 31.5957 150.441 31.5469 150.383 31.5273C150.324 31.5078 150.275 31.498 150.236 31.498C150.061 31.2441 149.934 30.9707 149.855 30.6777C149.777 30.3652 149.689 30.043 149.592 29.7109C149.553 29.6133 149.523 29.5156 149.504 29.418C149.484 29.3008 149.465 29.1738 149.445 29.0371C149.426 28.959 149.406 28.8809 149.387 28.8027C149.387 28.7246 149.367 28.6367 149.328 28.5391C149.289 28.4414 149.25 28.3438 149.211 28.2461C149.172 28.1289 149.143 28.0117 149.123 27.8945C149.084 27.6602 149.074 27.4355 149.094 27.2207C149.094 26.9863 149.113 26.7617 149.152 26.5469C149.27 25.9023 149.436 25.2871 149.65 24.7012C149.885 24.1152 150.119 23.5586 150.354 23.0312C150.393 22.8164 150.441 22.6309 150.5 22.4746C150.578 22.3184 150.646 22.1426 150.705 21.9473C150.803 21.8105 150.871 21.6543 150.91 21.4785C150.949 21.3027 150.998 21.127 151.057 20.9512C151.115 20.7949 151.184 20.6289 151.262 20.4531C151.359 20.2578 151.428 20.0723 151.467 19.8965C151.525 19.7012 151.574 19.5059 151.613 19.3105C151.672 19.1152 151.74 18.9395 151.818 18.7832C151.975 18.373 152.121 17.9824 152.258 17.6113C152.395 17.2402 152.541 16.8691 152.697 16.498C152.736 16.3809 152.775 16.2637 152.814 16.1465C152.854 16.0293 152.912 15.9219 152.99 15.8242C153.029 15.707 153.078 15.6094 153.137 15.5312C153.195 15.4336 153.254 15.3359 153.312 15.2383C153.312 15.1406 153.342 15.0723 153.4 15.0332C153.479 14.9746 153.537 14.9062 153.576 14.8281C153.674 14.6719 153.742 14.5156 153.781 14.3594C153.84 14.2031 153.918 14.0469 154.016 13.8906L154.367 13.4512C154.406 13.373 154.445 13.2949 154.484 13.2168C154.523 13.1387 154.582 13.0703 154.66 13.0117C154.875 12.6602 155.109 12.3086 155.363 11.957C155.617 11.6055 155.881 11.2344 156.154 10.8438C156.33 10.5703 156.525 10.3164 156.74 10.082C156.955 9.82813 157.18 9.58398 157.414 9.34961C157.492 9.25195 157.58 9.14453 157.678 9.02734C157.795 8.91016 157.912 8.8418 158.029 8.82227C158.205 8.80273 158.4 8.82227 158.615 8.88086C158.674 8.97852 158.723 9.08594 158.762 9.20312C158.82 9.30078 158.869 9.41797 158.908 9.55469C158.947 10.1602 158.928 10.7461 158.85 11.3125C158.771 11.8789 158.684 12.4355 158.586 12.9824C158.566 13.0801 158.557 13.1777 158.557 13.2754C158.576 13.3535 158.576 13.4414 158.557 13.5391C158.518 13.6562 158.469 13.8125 158.41 14.0078C158.352 14.1836 158.303 14.3496 158.264 14.5059C158.264 14.7793 158.205 15.0234 158.088 15.2383C157.971 15.4531 157.893 15.668 157.854 15.8828C157.795 15.9219 157.756 15.9902 157.736 16.0879C157.736 16.166 157.707 16.2246 157.648 16.2637C157.609 16.4785 157.541 16.6738 157.443 16.8496C157.365 17.0254 157.297 17.2012 157.238 17.377C156.945 17.7871 156.643 18.1875 156.33 18.5781C156.037 18.9492 155.754 19.3398 155.48 19.75C155.148 20.2578 154.787 20.7461 154.396 21.2148C154.025 21.6836 153.674 22.1719 153.342 22.6797C153.088 22.8945 152.873 23.1387 152.697 23.4121C152.521 23.6855 152.297 23.9297 152.023 24.1445C151.926 24.5352 151.828 24.9648 151.73 25.4336C151.652 25.8828 151.564 26.3418 151.467 26.8105C151.447 26.9473 151.418 27.084 151.379 27.2207C151.34 27.3379 151.301 27.4648 151.262 27.6016C151.223 27.7578 151.213 27.9238 151.232 28.0996C151.252 28.2754 151.223 28.4414 151.145 28.5977C151.184 28.6953 151.203 28.8125 151.203 28.9492C151.223 29.0664 151.262 29.1738 151.32 29.2715C151.359 29.3301 151.408 29.3887 151.467 29.4473C151.545 29.5059 151.613 29.5352 151.672 29.5352C151.809 29.457 151.887 29.4277 151.906 29.4473C151.926 29.4473 151.955 29.4375 151.994 29.418C152.092 29.3594 152.189 29.2812 152.287 29.1836C152.385 29.0859 152.473 28.998 152.551 28.9199C152.648 28.8809 152.717 28.8418 152.756 28.8027C152.814 28.7441 152.873 28.6953 152.932 28.6562C152.99 28.6172 153.039 28.5879 153.078 28.5684C153.137 28.5488 153.186 28.5195 153.225 28.4805C153.498 28.1875 153.762 27.9727 154.016 27.8359C154.27 27.6797 154.475 27.4941 154.631 27.2793C154.826 27.1621 155.002 27.0547 155.158 26.957C155.275 26.8984 155.373 26.8203 155.451 26.7227C155.549 26.6055 155.666 26.5176 155.803 26.459C155.842 26.4004 155.881 26.3516 155.92 26.3125C155.959 26.2734 155.998 26.2246 156.037 26.166C156.271 26.0098 156.496 25.8535 156.711 25.6973C156.945 25.541 157.189 25.3848 157.443 25.2285C157.482 25.1309 157.541 25.0527 157.619 24.9941C157.717 24.9355 157.795 24.877 157.854 24.8184C157.912 24.7598 157.961 24.7012 158 24.6426C158.039 24.5645 158.107 24.5156 158.205 24.4961C158.225 24.3984 158.264 24.3301 158.322 24.291C158.4 24.252 158.469 24.1836 158.527 24.0859ZM156.916 13.1582C156.74 13.1973 156.613 13.2852 156.535 13.4219C156.477 13.5586 156.418 13.7148 156.359 13.8906C156.281 14.0469 156.213 14.1641 156.154 14.2422C156.115 14.3203 156.105 14.4375 156.125 14.5938C155.52 15.5898 154.963 16.6348 154.455 17.7285C153.967 18.8223 153.469 19.9258 152.961 21.0391C153.352 20.6484 153.713 20.1797 154.045 19.6328C154.396 19.0859 154.758 18.6172 155.129 18.2266C155.402 17.5625 155.705 16.9473 156.037 16.3809C156.369 15.7949 156.623 15.1406 156.799 14.418C156.721 14.1836 156.73 13.9785 156.828 13.8027C156.926 13.6074 156.965 13.3926 156.945 13.1582H156.916ZM160.344 23.9102C160.48 23.8516 160.627 23.7734 160.783 23.6758C160.939 23.5586 161.076 23.4512 161.193 23.3535C161.428 23.1777 161.643 23.002 161.838 22.8262C162.033 22.6504 162.248 22.4746 162.482 22.2988C162.619 22.2012 162.736 22.1133 162.834 22.0352C162.951 21.9375 163.059 21.8496 163.156 21.7715C163.254 21.7129 163.342 21.6543 163.42 21.5957C163.518 21.5371 163.615 21.4785 163.713 21.4199C163.986 21.3027 164.221 21.2051 164.416 21.127C164.475 21.1074 164.533 21.0781 164.592 21.0391C164.67 20.9805 164.748 20.9512 164.826 20.9512C164.982 20.9316 165.119 20.9707 165.236 21.0684C165.354 21.1465 165.461 21.2051 165.559 21.2441C165.734 21.3418 165.9 21.4297 166.057 21.5078C166.232 21.5859 166.389 21.6934 166.525 21.8301C166.623 22.0059 166.73 22.1719 166.848 22.3281C166.984 22.4844 167.092 22.6797 167.17 22.9141C167.189 22.9727 167.199 23.0508 167.199 23.1484C167.199 23.2461 167.199 23.3438 167.199 23.4414C167.219 23.5781 167.248 23.7148 167.287 23.8516C167.346 23.9883 167.385 24.125 167.404 24.2617C167.443 24.3984 167.453 24.5449 167.434 24.7012C167.434 24.8379 167.385 24.9746 167.287 25.1113C166.721 25.4434 166.125 25.7266 165.5 25.9609C165.344 26.0781 165.178 26.1855 165.002 26.2832C164.846 26.3613 164.689 26.4492 164.533 26.5469C164.377 26.7617 164.182 26.9375 163.947 27.0742C163.732 27.2109 163.547 27.3672 163.391 27.543C163.469 27.7969 163.566 28.0117 163.684 28.1875C163.801 28.3633 163.938 28.5293 164.094 28.6855C164.152 28.7832 164.221 28.8711 164.299 28.9492C164.396 29.0078 164.494 29.0566 164.592 29.0957C164.689 29.1348 164.846 29.1738 165.061 29.2129C165.275 29.2324 165.432 29.2324 165.529 29.2129C165.646 29.1738 165.783 29.1348 165.939 29.0957C166.096 29.0371 166.242 28.9785 166.379 28.9199C166.652 28.9004 166.848 28.8125 166.965 28.6562C167.102 28.4805 167.248 28.334 167.404 28.2168C167.502 28.1387 167.6 28.0801 167.697 28.041C167.795 27.9824 167.893 27.8945 167.99 27.7773C168.049 27.6211 168.137 27.4941 168.254 27.3965C168.508 27.1426 168.742 26.9668 168.957 26.8691C169.094 26.6738 169.27 26.5566 169.484 26.5176C169.699 26.4785 169.885 26.4004 170.041 26.2832L170.451 25.9902C170.588 25.8926 170.715 25.7949 170.832 25.6973C170.949 25.5996 171.076 25.502 171.213 25.4043C171.33 25.3262 171.438 25.2676 171.535 25.2285C171.652 25.1699 171.74 25.0918 171.799 24.9941C171.877 24.9551 171.945 24.9258 172.004 24.9062C172.062 24.8867 172.121 24.8672 172.18 24.8477C172.277 24.9844 172.336 25.082 172.355 25.1406C172.395 25.1797 172.414 25.2285 172.414 25.2871C172.395 25.3848 172.355 25.4531 172.297 25.4922C172.238 25.5117 172.199 25.5703 172.18 25.668C171.965 25.8047 171.74 25.9512 171.506 26.1074C171.291 26.2441 171.086 26.4004 170.891 26.5762C170.871 26.6738 170.842 26.752 170.803 26.8105C170.783 26.8496 170.754 26.9082 170.715 26.9863C170.441 27.1816 170.188 27.3965 169.953 27.6309C169.719 27.8652 169.465 28.0898 169.191 28.3047C169.094 28.3633 168.996 28.4316 168.898 28.5098C168.82 28.5879 168.723 28.6562 168.605 28.7148C168.312 28.9883 168.02 29.2617 167.727 29.5352C167.434 29.7891 167.121 30.0234 166.789 30.2383C166.691 30.2969 166.594 30.3652 166.496 30.4434C166.398 30.502 166.281 30.5508 166.145 30.5898C166.027 30.6875 165.9 30.7461 165.764 30.7656C165.646 30.7852 165.529 30.8242 165.412 30.8828C165.178 30.9805 164.973 31.0781 164.797 31.1758C164.641 31.293 164.445 31.3711 164.211 31.4102C164.094 31.4492 163.977 31.4492 163.859 31.4102C163.762 31.3711 163.635 31.3613 163.479 31.3809C163.342 31.3027 163.205 31.2539 163.068 31.2344C163.049 31.1758 162.971 31.0586 162.834 30.8828C162.717 30.6875 162.639 30.5703 162.6 30.5312C162.521 30.2773 162.443 30.1016 162.365 30.0039C162.287 29.8867 162.209 29.7695 162.131 29.6523C162.033 29.4961 161.965 29.3301 161.926 29.1543C161.906 28.959 161.848 28.7832 161.75 28.627C161.77 28.5293 161.75 28.4609 161.691 28.4219C161.652 28.3633 161.643 28.2949 161.662 28.2168C161.428 28.041 161.281 27.9238 161.223 27.8652C161.184 27.7871 161.145 27.709 161.105 27.6309C161.105 27.416 161.105 27.2891 161.105 27.25C161.105 27.2109 161.125 27.1719 161.164 27.1328C161.281 27.0156 161.408 26.918 161.545 26.8398C161.701 26.7422 161.828 26.6348 161.926 26.5176C162.023 26.498 162.102 26.459 162.16 26.4004C162.238 26.3418 162.316 26.2832 162.395 26.2246C162.629 26.0684 162.854 25.9219 163.068 25.7852C163.283 25.6289 163.527 25.4727 163.801 25.3164C163.996 25.2188 164.113 25.0527 164.152 24.8184C164.211 24.584 164.26 24.3594 164.299 24.1445C164.182 23.9492 164.094 23.8516 164.035 23.8516C163.996 23.8516 163.957 23.832 163.918 23.793C163.859 23.7539 163.811 23.7051 163.771 23.6465C163.732 23.5684 163.674 23.5293 163.596 23.5293C163.537 23.5488 163.459 23.5879 163.361 23.6465C163.264 23.7051 163.186 23.7539 163.127 23.793C162.795 23.9883 162.463 24.1641 162.131 24.3203C161.799 24.457 161.477 24.623 161.164 24.8184C161.008 24.8965 160.842 24.9746 160.666 25.0527C160.51 25.1309 160.383 25.1992 160.285 25.2578C160.246 25.2773 160.197 25.3164 160.139 25.375C160.1 25.4141 160.061 25.4531 160.021 25.4922C159.865 25.8242 159.738 26.0684 159.641 26.2246C159.562 26.3613 159.484 26.5176 159.406 26.6934C159.387 26.752 159.357 26.8105 159.318 26.8691C159.299 26.9082 159.27 26.9473 159.23 26.9863C159.133 27.1426 159.055 27.2988 158.996 27.4551C158.938 27.6113 158.85 27.7578 158.732 27.8945C158.693 28.1289 158.615 28.3828 158.498 28.6562C158.4 28.9102 158.312 29.1641 158.234 29.418C158.176 29.6523 158.098 29.8672 158 30.0625C157.922 30.2578 157.766 30.3848 157.531 30.4434C157.434 30.5996 157.375 30.7168 157.355 30.7949C157.355 30.873 157.307 30.9902 157.209 31.1465C157.131 31.1855 157.053 31.2051 156.975 31.2051C156.916 31.2246 156.838 31.2637 156.74 31.3223C156.721 31.3223 156.672 31.3516 156.594 31.4102C156.516 31.4688 156.438 31.5273 156.359 31.5859C156.262 31.6445 156.174 31.7031 156.096 31.7617C156.018 31.8203 155.969 31.8496 155.949 31.8496C155.793 31.8887 155.695 31.8789 155.656 31.8203C155.598 31.7812 155.529 31.7812 155.451 31.8203C155.334 31.5859 155.236 31.4395 155.158 31.3809C155.197 31.2246 155.236 31.0879 155.275 30.9707C155.295 30.834 155.344 30.7168 155.422 30.6191C155.48 30.541 155.549 30.4531 155.627 30.3555C155.705 30.2383 155.773 30.1309 155.832 30.0332C155.871 29.9551 155.891 29.8867 155.891 29.8281C155.871 29.75 155.881 29.6719 155.92 29.5938C155.959 29.4961 156.018 29.3984 156.096 29.3008C156.154 29.1836 156.213 29.0762 156.271 28.9785C156.35 28.7832 156.438 28.5977 156.535 28.4219C156.613 28.2461 156.691 28.0508 156.77 27.8359C156.828 27.6211 156.877 27.416 156.916 27.2207C156.955 27.0059 157.023 26.791 157.121 26.5762C157.219 26.3613 157.316 26.1367 157.414 25.9023C157.512 25.6484 157.58 25.4141 157.619 25.1992C157.639 25.1016 157.668 25.0234 157.707 24.9648C157.746 24.9062 157.785 24.8281 157.824 24.7305C157.863 24.6328 157.902 24.5254 157.941 24.4082C158 24.2715 158.059 24.1445 158.117 24.0273C158.215 23.9102 158.264 23.8223 158.264 23.7637C158.283 23.7051 158.312 23.6562 158.352 23.6172C158.391 23.5586 158.41 23.5098 158.41 23.4707C158.43 23.4121 158.459 23.3633 158.498 23.3242C158.537 23.2266 158.586 23.1289 158.645 23.0312C158.703 22.9336 158.752 22.8359 158.791 22.7383C158.85 22.6602 158.898 22.5332 158.938 22.3574C158.977 22.3184 159.006 22.2695 159.025 22.2109C159.064 22.1523 159.084 22.1035 159.084 22.0645C159.143 21.8496 159.182 21.6445 159.201 21.4492C159.24 21.2539 159.318 21.0488 159.436 20.834C159.514 20.5605 159.562 20.3652 159.582 20.248C159.621 20.1113 159.709 19.9453 159.846 19.75C159.904 19.5938 159.973 19.4375 160.051 19.2812C160.129 19.1055 160.197 18.9395 160.256 18.7832C160.314 18.627 160.373 18.4805 160.432 18.3438C160.49 18.1875 160.539 18.0215 160.578 17.8457C160.715 17.5723 160.822 17.3574 160.9 17.2012C160.979 17.0254 161.066 16.8496 161.164 16.6738C161.32 16.3613 161.428 16.127 161.486 15.9707C161.564 15.7949 161.652 15.6387 161.75 15.502C161.809 15.3457 161.848 15.209 161.867 15.0918C161.906 14.9551 161.955 14.8281 162.014 14.7109C162.189 14.4766 162.297 14.291 162.336 14.1543C162.375 14.0176 162.424 13.8906 162.482 13.7734C162.678 13.3242 162.902 12.8652 163.156 12.3965C163.41 11.9277 163.713 11.5176 164.064 11.166C164.162 11.0684 164.26 10.9707 164.357 10.873C164.475 10.7754 164.572 10.6582 164.65 10.5215C164.807 10.3652 164.963 10.2383 165.119 10.1406C165.275 10.0234 165.422 9.89648 165.559 9.75977C165.812 9.81836 165.959 9.86719 165.998 9.90625C166.057 9.92578 166.105 9.93555 166.145 9.93555C166.242 10.0723 166.311 10.2676 166.35 10.5215C166.408 10.7559 166.428 10.9805 166.408 11.1953C166.408 11.332 166.379 11.4688 166.32 11.6055C166.262 11.7422 166.232 11.8789 166.232 12.0156C166.213 12.0937 166.203 12.1621 166.203 12.2207C166.223 12.2793 166.203 12.3281 166.145 12.3672C166.105 12.582 166.047 12.7871 165.969 12.9824C165.891 13.1582 165.812 13.334 165.734 13.5098C165.441 14.2129 165.129 14.8086 164.797 15.2969C164.484 15.7852 164.182 16.332 163.889 16.9375C163.752 17.1523 163.625 17.3672 163.508 17.582C163.41 17.7773 163.312 18.0117 163.215 18.2852C163.098 18.5195 162.971 18.7539 162.834 18.9883C162.697 19.2227 162.531 19.4375 162.336 19.6328C162.219 19.8477 162.111 20.0625 162.014 20.2773C161.936 20.4727 161.818 20.668 161.662 20.8633C161.623 21 161.574 21.127 161.516 21.2441C161.457 21.3418 161.379 21.4492 161.281 21.5664C161.203 21.7227 161.125 21.8594 161.047 21.9766C160.988 22.0938 160.939 22.2402 160.9 22.416C160.803 22.6699 160.695 22.9336 160.578 23.207C160.48 23.4609 160.402 23.6953 160.344 23.9102Z" fill="black"/>
</svg>
