<svg width="21" height="20" viewBox="0 0 21 20" fill="none" xmlns="http://www.w3.org/2000/svg">
<path d="M11.2361 0.00279488C16.7574 0.133189 21.1276 4.7148 20.9972 10.2361C20.8668 15.7574 16.2852 20.1276 10.7639 19.9972C9.06187 19.957 7.46911 19.4939 6.08399 18.7106L0.766688 19.7611L2.06706 14.4993C1.35003 13.0788 0.962594 11.4659 1.00279 9.76391C1.13319 4.24259 5.71479 -0.127601 11.2361 0.00279488ZM12.7061 7.03946C11.927 7.02122 11.23 7.42361 10.8011 7.8326C10.392 7.40382 9.71476 6.96899 8.93569 6.95042C7.67865 6.92073 6.60607 7.94344 6.57129 9.40993C6.50202 12.3432 9.60505 14.0944 10.6378 14.7477C11.7003 14.1438 14.8825 12.5411 14.9518 9.60785C14.9863 8.14136 13.9789 7.06952 12.7061 7.03946Z" fill="#FF0044"/>
</svg>
