<svg width="131" height="29" viewBox="0 0 131 29" fill="none" xmlns="http://www.w3.org/2000/svg">
<path d="M130.901 6.12V22.26H126.431V20.4C125.271 21.8 123.591 22.5 121.391 22.5C119.871 22.5 118.491 22.16 117.251 21.48C116.031 20.8 115.071 19.83 114.371 18.57C113.671 17.31 113.321 15.85 113.321 14.19C113.321 12.53 113.671 11.07 114.371 9.81C115.071 8.55 116.031 7.58 117.251 6.9C118.491 6.22 119.871 5.88 121.391 5.88C123.451 5.88 125.061 6.53 126.221 7.83V6.12H130.901ZM122.201 18.66C123.381 18.66 124.361 18.26 125.141 17.46C125.921 16.64 126.311 15.55 126.311 14.19C126.311 12.83 125.921 11.75 125.141 10.95C124.361 10.13 123.381 9.72 122.201 9.72C121.001 9.72 120.011 10.13 119.231 10.95C118.451 11.75 118.061 12.83 118.061 14.19C118.061 15.55 118.451 16.64 119.231 17.46C120.011 18.26 121.001 18.66 122.201 18.66Z" fill="url(#paint0_linear_1312_6)"/>
<path d="M103.413 5.88C105.413 5.88 107.023 6.48 108.243 7.68C109.483 8.88 110.103 10.66 110.103 13.02V22.26H105.423V13.74C105.423 12.46 105.143 11.51 104.583 10.89C104.023 10.25 103.213 9.93 102.153 9.93C100.973 9.93 100.033 10.3 99.3333 11.04C98.6333 11.76 98.2833 12.84 98.2833 14.28V22.26H93.6033V0H98.2833V7.8C98.9033 7.18 99.6533 6.71 100.533 6.39C101.413 6.05 102.373 5.88 103.413 5.88Z" fill="url(#paint1_linear_1312_6)"/>
<path d="M90.9601 21.48C90.5001 21.82 89.9301 22.08 89.2501 22.26C88.5901 22.42 87.9001 22.5 87.1801 22.5C85.2401 22.5 83.7501 22.01 82.7101 21.03C81.6701 20.05 81.1501 18.6101 81.1501 16.71V2.55005H85.8301V6.48005H89.8201V10.08H85.8301V16.65C85.8301 17.33 86.0001 17.86 86.3401 18.24C86.6801 18.6 87.1701 18.78 87.8102 18.78C88.5302 18.78 89.1701 18.58 89.7301 18.18L90.9601 21.48Z" fill="url(#paint2_linear_1312_6)"/>
<path d="M70.4443 18.75C71.2843 18.75 72.0243 18.63 72.6643 18.39C73.3243 18.13 73.9343 17.73 74.4943 17.19L76.9843 19.89C75.4643 21.63 73.2443 22.5 70.3243 22.5C68.5043 22.5 66.8943 22.15 65.4943 21.45C64.0943 20.73 63.0143 19.74 62.2543 18.48C61.4943 17.22 61.1143 15.79 61.1143 14.19C61.1143 12.61 61.4843 11.19 62.2243 9.93001C62.9843 8.65 64.0143 7.66 65.3143 6.96C66.6343 6.24 68.1143 5.88 69.7543 5.88C71.2943 5.88 72.6943 6.21 73.9543 6.87C75.2143 7.51 76.2143 8.45 76.9543 9.69C77.7143 10.91 78.0943 12.36 78.0943 14.04L66.1543 16.35C66.4943 17.15 67.0243 17.75 67.7443 18.15C68.4843 18.55 69.3843 18.75 70.4443 18.75ZM69.7543 9.42C68.5743 9.42 67.6143 9.8 66.8743 10.56C66.1343 11.32 65.7443 12.37 65.7043 13.71L73.5643 12.18C73.3443 11.34 72.8943 10.67 72.2143 10.17C71.5343 9.67 70.7143 9.42 69.7543 9.42Z" fill="url(#paint3_linear_1312_6)"/>
<path d="M57.9584 6.12V19.56C57.9584 22.52 57.1884 24.72 55.6484 26.16C54.1084 27.6 51.8584 28.32 48.8984 28.32C47.3384 28.32 45.8584 28.13 44.4584 27.75C43.0584 27.37 41.8984 26.82 40.9784 26.1L42.8384 22.74C43.5184 23.3 44.3784 23.74 45.4184 24.06C46.4584 24.4 47.4984 24.57 48.5384 24.57C50.1584 24.57 51.3484 24.2 52.1084 23.46C52.8884 22.74 53.2784 21.64 53.2784 20.16V19.47C52.0584 20.81 50.3584 21.48 48.1784 21.48C46.6984 21.48 45.3384 21.16 44.0984 20.52C42.8784 19.86 41.9084 18.94 41.1884 17.76C40.4684 16.58 40.1084 15.22 40.1084 13.68C40.1084 12.14 40.4684 10.78 41.1884 9.60001C41.9084 8.42 42.8784 7.51 44.0984 6.87C45.3384 6.21 46.6984 5.88 48.1784 5.88C50.5184 5.88 52.2984 6.65 53.5184 8.19V6.12H57.9584ZM49.1084 17.64C50.3484 17.64 51.3584 17.28 52.1384 16.56C52.9384 15.82 53.3384 14.86 53.3384 13.68C53.3384 12.5 52.9384 11.55 52.1384 10.83C51.3584 10.09 50.3484 9.72 49.1084 9.72C47.8684 9.72 46.8484 10.09 46.0484 10.83C45.2484 11.55 44.8484 12.5 44.8484 13.68C44.8484 14.86 45.2484 15.82 46.0484 16.56C46.8484 17.28 47.8684 17.64 49.1084 17.64Z" fill="url(#paint4_linear_1312_6)"/>
<path d="M21.5 8.26001C19.7 7.22001 16.0599 5.43002 13.9999 5.13002V22.26H9.13992V5.13002C7.07992 5.43002 2.82 7.22001 1 8.26001L0 4.26001C1.44 3.40001 4.66992 2.00002 6.34992 1.56002C8.02992 1.12002 9.75992 0.900024 11.5399 0.900024C13.3399 0.900024 15.0799 1.12002 16.7599 1.56002C18.4599 2.00002 20.58 2.90001 22 3.76001L21.5 8.26001Z" fill="url(#paint5_linear_1312_6)"/>
<path d="M30.0698 5.86576C34.4868 5.9701 37.983 9.63538 37.8787 14.0524C37.7744 18.4694 34.109 21.9656 29.692 21.8613C28.3306 21.8291 27.0567 21.4587 25.9487 20.8322L21.6943 21.6724L22.7344 17.4624C22.1609 16.3261 21.851 15.0361 21.8831 13.6746C21.9875 9.2576 25.6528 5.76145 30.0698 5.86576ZM31.2458 11.4947C30.6224 11.4801 30.0647 11.8025 29.7216 12.1298C29.3943 11.7867 28.8525 11.4382 28.2291 11.4235C27.2234 11.3997 26.3651 12.2187 26.3373 13.392C26.2822 15.7385 28.7648 17.1388 29.591 17.6615C30.4409 17.1784 32.9869 15.8968 33.0425 13.5504C33.0702 12.3771 32.2641 11.5188 31.2458 11.4947Z" fill="#FF0044"/>
<defs>
<linearGradient id="paint0_linear_1312_6" x1="1.99996" y1="11.76" x2="134" y2="11.76" gradientUnits="userSpaceOnUse">
<stop stop-color="#FF0044"/>
</linearGradient>
<linearGradient id="paint1_linear_1312_6" x1="1.9999" y1="11.76" x2="134" y2="11.76" gradientUnits="userSpaceOnUse">
<stop stop-color="#FF0044"/>
</linearGradient>
<linearGradient id="paint2_linear_1312_6" x1="2.00007" y1="11.76" x2="134" y2="11.76" gradientUnits="userSpaceOnUse">
<stop stop-color="#FF0044"/>
</linearGradient>
<linearGradient id="paint3_linear_1312_6" x1="1.99996" y1="11.76" x2="134" y2="11.76" gradientUnits="userSpaceOnUse">
<stop stop-color="#FF0044"/>
</linearGradient>
<linearGradient id="paint4_linear_1312_6" x1="1.99996" y1="11.76" x2="134" y2="11.76" gradientUnits="userSpaceOnUse">
<stop stop-color="#FF0044"/>
</linearGradient>
<linearGradient id="paint5_linear_1312_6" x1="1.99992" y1="11.76" x2="134" y2="11.76" gradientUnits="userSpaceOnUse">
<stop stop-color="#FF0044"/>
</linearGradient>
</defs>
</svg>
